<?xml version="1.0" encoding="utf-8"?>
<!-- Generator: Adobe Illustrator 15.0.0, SVG Export Plug-In . SVG Version: 6.00 Build 0)  -->
<!DOCTYPE svg PUBLIC "-//W3C//DTD SVG 1.1//EN" "http://www.w3.org/Graphics/SVG/1.1/DTD/svg11.dtd">
<svg version="1.1" id="Layer_1" xmlns="http://www.w3.org/2000/svg" xmlns:xlink="http://www.w3.org/1999/xlink" x="0px" y="0px"
	 width="10px" height="10px" viewBox="0 0 10 10" enable-background="new 0 0 10 10" xml:space="preserve">
<circle fill="#E73529" cx="5" cy="5" r="4.888"/>
<path fill="#FFFFFF" d="M5.691,5l1.616-1.615c0.191-0.192,0.191-0.5,0-0.692c-0.19-0.19-0.501-0.19-0.691,0L5,4.309L3.386,2.692
	c-0.191-0.19-0.5-0.19-0.691,0c-0.191,0.192-0.191,0.5,0,0.692L4.309,5L2.693,6.612c-0.191,0.191-0.191,0.502,0,0.693
	c0.095,0.094,0.221,0.143,0.346,0.143c0.125,0,0.25-0.049,0.346-0.143L5,5.692l1.616,1.614c0.096,0.097,0.221,0.146,0.346,0.146
	c0.126,0,0.249-0.049,0.346-0.146c0.191-0.188,0.191-0.499,0-0.69L5.691,5z"/>
</svg>
